<?xml version="1.0" encoding="iso-8859-1"?>
<!-- Uploaded to: SVG Repo, www.svgrepo.com, Generator: SVG Repo Mixer Tools -->
<svg fill="#000000" height="800px" width="800px" version="1.1" id="Layer_1" xmlns="http://www.w3.org/2000/svg" xmlns:xlink="http://www.w3.org/1999/xlink" 
	 viewBox="0 0 512 512" xml:space="preserve">
<g>
	<g>
		<g>
			<path d="M455.791,32.201c-12.556,0-22.773,10.216-22.773,22.773c0,12.556,10.216,22.773,22.773,22.773
				c12.556,0,22.773-10.216,22.773-22.773C478.564,42.417,468.348,32.201,455.791,32.201z M455.791,61.578
				c-3.641,0-6.604-2.963-6.604-6.604s2.964-6.604,6.604-6.604c3.641,0,6.604,2.963,6.604,6.604S459.432,61.578,455.791,61.578z"/>
			<path d="M457.028,0.001c-9.476,0-18.398,2.41-26.19,6.649L141.706,129.228c-15.503,4.417-30.223,10.71-43.901,18.612
				c-0.656,0.279-1.25,0.641-1.789,1.059C38.594,182.895,0,245.47,0,316.9c0,107.579,87.521,195.099,195.1,195.099
				c87.147,0,161.125-57.439,186.084-136.444c0,0,0.001-0.001,0.001-0.002L506.044,79.812c3.8-7.467,5.956-15.903,5.956-24.839
				C512,24.662,487.339,0.001,457.028,0.001z M390.136,312.783c-1.307-61.675-31.906-119.464-82.448-155.236
				c-3.646-2.581-8.69-1.714-11.269,1.928c-2.579,3.644-1.716,8.69,1.928,11.269c47.391,33.541,75.683,88.178,75.683,146.153
				c0,98.664-80.268,178.932-178.93,178.932c-98.664,0-178.932-80.268-178.932-178.931c0-65.861,35.774-123.518,88.907-154.579
				l41.935-17.779c15.308-4.277,31.436-6.572,48.09-6.572c28.53,0,55.794,6.513,81.035,19.357c3.98,2.025,8.846,0.441,10.872-3.539
				c2.024-3.978,0.44-8.846-3.539-10.872c-25.945-13.202-53.843-20.266-83-21.038l205.447-87.1
				c-2.481,6.256-3.86,13.065-3.86,20.194c0,30.311,24.661,54.972,54.972,54.972c7.211,0,14.094-1.41,20.41-3.945L390.136,312.783z
				 M457.028,93.778c-21.397,0-38.804-17.407-38.804-38.804c0-21.397,17.407-38.804,38.804-38.804s38.804,17.407,38.804,38.804
				C495.832,76.371,478.425,93.778,457.028,93.778z"/>
			<path d="M262.527,166.422c-2.463-1.422-5.264-2.175-8.1-2.175c-5.777,0-11.16,3.108-14.049,8.108l-3.568,6.175
				c-2.822-0.848-5.673-1.61-8.538-2.283v-7.136c0-8.941-7.274-16.216-16.215-16.216h-33.752c-8.941,0-16.215,7.275-16.215,16.216
				v7.136c-2.864,0.673-5.715,1.435-8.539,2.283l-3.565-6.174c-2.888-5.003-8.272-8.11-14.051-8.11c-2.837,0-5.637,0.752-8.1,2.175
				l-29.228,16.874c-7.742,4.469-10.406,14.404-5.937,22.151l3.583,6.205c-2.138,2.012-4.221,4.096-6.237,6.237l-6.209-3.583
				c-2.462-1.421-5.262-2.172-8.097-2.172c-5.777,0-11.16,3.105-14.051,8.107l-16.872,29.23c-4.47,7.742-1.812,17.68,5.932,22.153
				l6.176,3.567c-0.848,2.822-1.61,5.673-2.283,8.537h-7.136c-8.941,0-16.215,7.275-16.215,16.216v33.751
				c0,8.941,7.274,16.216,16.215,16.216h7.136c0.673,2.865,1.435,5.715,2.283,8.539l-6.177,3.567
				c-3.75,2.165-6.432,5.663-7.552,9.848c-1.121,4.185-0.544,8.555,1.621,12.302l16.873,29.231
				c2.889,5.001,8.273,8.108,14.051,8.108c2.835,0,5.635-0.751,8.099-2.174l6.207-3.583c2.013,2.14,4.097,4.223,6.236,6.238
				l-3.584,6.21c-4.466,7.742-1.802,17.676,5.938,22.145l29.229,16.875c2.463,1.422,5.264,2.174,8.101,2.174
				c5.78,0,11.164-3.108,14.049-8.108l3.567-6.175c2.824,0.848,5.675,1.611,8.538,2.284v7.137c0,8.941,7.274,16.215,16.215,16.215
				h33.753c8.941,0,16.215-7.274,16.215-16.215v-7.137c2.864-0.673,5.715-1.436,8.538-2.284l3.567,6.176
				c2.889,5.001,8.272,8.107,14.049,8.107c2.836,0,5.636-0.751,8.101-2.174l29.229-16.875c3.751-2.167,6.434-5.662,7.555-9.847
				s0.545-8.554-1.62-12.3l-3.582-6.209c2.14-2.014,4.222-4.097,6.238-6.238l6.207,3.584c2.463,1.421,5.263,2.173,8.099,2.173
				c5.78,0,11.165-3.109,14.05-8.109l16.874-29.228c2.168-3.75,2.743-8.121,1.621-12.306c-1.121-4.183-3.803-7.68-7.554-9.845
				l-6.176-3.567c0.848-2.824,1.611-5.675,2.283-8.539h7.136c8.941,0,16.215-7.275,16.215-16.216v-33.751
				c-0.002-8.941-7.276-16.216-16.217-16.216h-7.136c-0.673-2.864-1.434-5.714-2.282-8.537l6.181-3.57
				c7.738-4.474,10.397-14.41,5.928-22.148l-16.875-29.23c-2.888-5.001-8.272-8.107-14.051-8.107c-2.835,0-5.635,0.75-8.099,2.173
				l-6.205,3.582c-2.017-2.142-4.099-4.224-6.238-6.238l3.581-6.203c2.167-3.751,2.742-8.121,1.621-12.305
				c-1.121-4.184-3.804-7.681-7.555-9.845L262.527,166.422z M302.757,235.168l11.942-6.841l16.859,29.296l-11.85,6.844
				c-3.37,1.947-4.874,6.018-3.581,9.688c2.197,6.232,3.917,12.668,5.112,19.129c0.709,3.832,4.053,6.613,7.949,6.613l13.743,0.047
				l-0.045,33.796H329.19c-3.898,0-7.24,2.781-7.949,6.614c-1.194,6.457-2.915,12.895-5.112,19.133
				c-1.293,3.67,0.211,7.741,3.582,9.687l11.866,6.905l-16.939,29.249l-11.878-6.86c-3.369-1.946-7.648-1.215-10.181,1.739
				c-4.294,5.01-9.007,9.724-14.006,14.008c-2.952,2.533-3.684,6.808-1.74,10.177l6.84,11.944l-29.294,16.859l-6.842-11.849
				c-1.947-3.371-6.019-4.876-9.687-3.583c-6.236,2.198-12.674,3.919-19.135,5.117c-3.831,0.709-6.611,4.052-6.611,7.948
				l-0.029,13.742c0,0-0.004,0.001-0.017,0.001l-33.799-0.046v-13.697c0-3.897-2.78-7.239-6.611-7.948
				c-6.457-1.196-12.895-2.919-19.135-5.117c-0.884-0.31-1.79-0.46-2.685-0.46c-2.821,0-5.524,1.484-7.002,4.043l-6.906,11.867
				l-29.246-16.939l6.857-11.879c1.945-3.369,1.214-7.647-1.74-10.178c-5.001-4.288-9.713-9-14.003-14.006
				c-2.533-2.956-6.813-3.69-10.181-1.741l-11.944,6.842l-16.86-29.294l11.852-6.842c3.371-1.947,4.876-6.019,3.582-9.689
				c-2.199-6.233-3.919-12.67-5.115-19.13c-0.709-3.833-4.052-6.614-7.949-6.614l-13.743-0.047l0.046-33.797h13.697
				c3.897,0,7.24-2.781,7.949-6.613c1.195-6.464,2.917-12.9,5.114-19.127c1.296-3.67-0.209-7.745-3.581-9.69l-11.867-6.908
				l16.938-29.247l11.879,6.858c3.371,1.946,7.648,1.214,10.18-1.74c4.298-5.012,9.009-9.725,14.004-14.004
				c2.956-2.532,3.687-6.81,1.741-10.181l-6.841-11.942l29.294-16.859l6.842,11.849c1.948,3.371,6.02,4.873,9.689,3.582
				c6.233-2.198,12.671-3.919,19.129-5.113c3.833-0.709,6.614-4.052,6.614-7.949l0.046-13.744l33.799,0.047v13.697
				c0,3.898,2.781,7.24,6.614,7.949c6.464,1.195,12.9,2.917,19.126,5.113c3.668,1.294,7.745-0.209,9.689-3.581l6.909-11.868
				l29.245,16.94l-6.856,11.879c-1.947,3.371-1.214,7.649,1.741,10.18c4.993,4.277,9.705,8.99,14.007,14.006
				C295.111,236.381,299.384,237.113,302.757,235.168z"/>
			<path d="M195.182,208.49c-59.732,0-108.328,48.596-108.328,108.328s48.596,108.328,108.328,108.328
				c27.554,0,53.812-10.353,73.936-29.154c3.262-3.047,3.436-8.163,0.388-11.427c-3.045-3.26-8.161-3.436-11.427-0.388
				c-17.119,15.993-39.456,24.8-62.898,24.8c-50.817,0-92.16-41.342-92.16-92.16s41.342-92.16,92.16-92.16s92.16,41.342,92.16,92.16
				c0,16.827-4.576,33.291-13.231,47.607c-2.311,3.821-1.085,8.791,2.736,11.101c3.816,2.307,8.789,1.086,11.1-2.735
				c10.182-16.842,15.564-36.197,15.564-55.974C303.51,257.085,254.915,208.49,195.182,208.49z"/>
			<path d="M195.182,243.521c-40.415,0-73.297,32.881-73.297,73.297s32.881,73.297,73.297,73.297s73.297-32.881,73.297-73.297
				C268.479,276.402,235.598,243.521,195.182,243.521z M195.182,373.946c-31.501,0-57.128-25.627-57.128-57.128
				s25.627-57.128,57.128-57.128s57.128,25.627,57.128,57.128S226.684,373.946,195.182,373.946z"/>
			<path d="M195.182,294.045c-12.556,0-22.773,10.216-22.773,22.773c0,12.556,10.216,22.773,22.773,22.773
				s22.773-10.216,22.773-22.773C217.955,304.261,207.74,294.045,195.182,294.045z M195.182,323.422
				c-3.641,0-6.604-2.963-6.604-6.604c0-3.641,2.963-6.604,6.604-6.604s6.604,2.963,6.604,6.604
				C201.786,320.459,198.823,323.422,195.182,323.422z"/>
		</g>
	</g>
</g>
</svg>